<?xml version="1.0" encoding="UTF-8"?>
<svg xmlns="http://www.w3.org/2000/svg" viewBox="0 0 48 48" width="48px" height="48px">
  <path fill="#ffd600" d="M6,42V6h36v36H6z"/>
  <path fill="#000001" d="M29.538 32.947c.692 0 1.208-.687 1.208-1.585 0-.892-.516-1.58-1.208-1.58-.682 0-1.203.688-1.203 1.58C28.335 32.26 28.856 32.947 29.538 32.947zM19.412 33.372c.838 0 1.482-.688 1.482-1.58 0-.891-.644-1.584-1.482-1.584-.836 0-1.48.693-1.48 1.584C17.932 32.684 18.576 33.372 19.412 33.372zM26.294 23.075c-.061-.969-.79-1.662-1.708-1.662-.918 0-1.654.693-1.707 1.662H26.294zM24.586 33.136c-.386 0-.775-.317-.775-.671 0-.338.389-.671.775-.671.388 0 .779.333.779.671C25.365 32.819 24.974 33.136 24.586 33.136zM27.204 30.525c-.535 0-1.124.49-1.124 1.202 0 .686.589 1.202 1.124 1.202.536 0 1.124-.516 1.124-1.202C28.328 31.015 27.74 30.525 27.204 30.525zM41.75 14.898c-.345.21-.693.434-1.055.669l1.752 1.707-4.623 2.781-.737-3.325c-.376.231-.753.466-1.133.705l.871 3.422-5.082 3.385-.871-4.158c-.345.22-.687.445-1.027.671l.976 4.214L24 28.695l-5.801-3.725 1.242-4.214c-.308-.224-.62-.449-.937-.671l-1.041 4.159-5.09-3.384 1.172-3.426c-.358-.238-.717-.473-1.072-.704l-.976 3.324-4.626-2.781 1.779-1.708c-.313-.225-.629-.449-.943-.669l-1.415 1.353c-.323-.303-.637-.613-.943-.929l1.511-1.178c-.358-.327-.717-.661-1.072-.999l-1.172 1.135c-.28-.303-.56-.612-.833-.925l1.242-.999c-.28-.303-.56-.613-.833-.929l-1.242.999c-.273-.313-.547-.622-.814-.938l1.172-1.135c-.355-.338-.714-.672-1.072-.999l-1.511 1.178c-.306-.317-.62-.626-.943-.929l1.415-1.353c-.314-.22-.63-.444-.943-.669l-1.779 1.708 4.626-2.781.976 3.324c.355-.231.714-.466 1.072-.704l-1.172-3.426 5.09-3.384 1.041 4.158c.317-.222.629-.447.937-.671l-1.242-4.213L24 9.695l5.801 3.726-1.242 4.213c.34-.226.682-.45 1.027-.671l.871-4.158 5.082 3.384-.871 3.426c.38-.238.757-.473 1.133-.705l.737-3.323 4.623 2.781-1.752 1.707c.362-.234.71-.459 1.055-.669l1.893-1.815c.345.21.693.434 1.055.669l-1.893 1.815c.362.21.71.435 1.055.669l1.893-1.815c.345.21.693.434 1.055.669l-1.893 1.815c.362.21.71.435 1.055.669l1.893-1.815c.345.21.693.434 1.055.669l-1.893 1.815c.362.21.71.435 1.055.669l1.893-1.815C42.443 14.464 42.095 14.688 41.75 14.898zM29.538 27.741c-1.532 0-2.748 1.265-2.748 2.821 0 1.555 1.218 2.812 2.748 2.812 1.533 0 2.754-1.257 2.754-2.812C32.292 29.006 31.071 27.741 29.538 27.741zM19.412 28.119c-1.681 0-3.012 1.329-3.012 2.962 0 1.633 1.331 2.962 3.012 2.962 1.682 0 3.008-1.329 3.008-2.962C22.42 29.448 21.094 28.119 19.412 28.119zM26.294 19.432H22.88c.153-2.137 1.757-3.699 3.706-3.699 1.974 0 3.561 1.562 3.714 3.699H26.294zM24.586 31.794c-1.257 0-2.267.923-2.267 2.063 0 1.151 1.01 2.065 2.267 2.065 1.258 0 2.265-.914 2.265-2.065C26.851 32.717 25.844 31.794 24.586 31.794zM27.204 30.525c-.535 0-1.124.49-1.124 1.202 0 .686.589 1.202 1.124 1.202.536 0 1.124-.516 1.124-1.202C28.328 31.015 27.74 30.525 27.204 30.525z"/>
</svg>
