<?xml version="1.0" encoding="UTF-8"?>
<svg xmlns="http://www.w3.org/2000/svg" viewBox="0 0 48 48" width="48px" height="48px">
  <path fill="#37474f" d="M24.5,44.757l-18-10.286c-0.625-0.356-1-1.018-1-1.732V15.261c0-0.714,0.375-1.376,1-1.732l18-10.286 c0.619-0.354,1.381-0.354,2,0l18,10.286c0.625,0.356,1,1.018,1,1.732v17.478c0,0.714-0.375,1.376-1,1.732l-18,10.286 C25.881,45.111,25.119,45.111,24.5,44.757z"/>
  <path fill="#546e7a" d="M15.5,23.367c0-0.714,0.375-1.376,1-1.732l7-4c0.619-0.354,1.381-0.354,2,0l7,4 c0.625,0.356,1,1.018,1,1.732v8c0,0.714-0.375,1.376-1,1.732l-7,4c-0.619,0.354-1.381,0.354-2,0l-7-4 c-0.625-0.356-1-1.018-1-1.732V23.367z"/>
  <path fill="#fff" d="M34.5 26.5H36.5V28.5H34.5zM30.5 26.5H32.5V28.5H30.5zM34.5 22.5H36.5V24.5H34.5zM30.5 22.5H32.5V24.5H30.5zM38.5 26.5H40.5V28.5H38.5zM38.5 22.5H40.5V24.5H38.5zM26.5 26.5H28.5V28.5H26.5zM26.5 22.5H28.5V24.5H26.5z"/>
</svg>
