<?xml version="1.0" encoding="UTF-8"?>
<svg xmlns="http://www.w3.org/2000/svg" viewBox="0 0 48 48" width="48px" height="48px">
  <path fill="#03A9F4" d="M40,20c0.391-1.735-0.092-3.78-2.5-6c-3.914,3.543-2.795,7.227-1.5,9c0,0-0.166,1-4,1S2,24,2,24S0.167,40,18,40c15.593,0,19.973-12.003,20.828-15.076C39.182,24.972,39.579,25.003,40,25c2.147-0.017,4.93-1.171,6-5.484C43.162,18.533,41.339,18.978,40,20z"/>
  <path fill="#0288D1" d="M2.165,28C2.9,32.739,5.983,40,18,40c12.185,0,17.523-7.33,19.682-12H2.165z"/>
  <path fill="#81D4FA" d="M19.812,39.938C18.892,39.616,14.74,38.848,14,33c-4.209,1.863-7.938,1.375-9.579,1.008C6.583,37.237,10.591,40,18,40C18.623,40,19.224,39.976,19.812,39.938z"/>
  <path fill="#FFF" d="M18,30c-1.623,0-3-1.377-3-3s1.377-3,3-3s3,1.377,3,3S19.623,30,18,30z"/>
  <path fill="#0288D1" d="M8,24H6v-6h2V24z M12,24h-2v-6h2V24z M16,24h-2v-6h2V24z M20,24h-2v-6h2V24z M24,24h-2v-6h2V24z M28,24h-2v-6h2V24z M32,24h-2v-6h2V24z M36,18v6h-2v-6H36z M6,18H4v-6h2V18z M10,18H8v-6h2V18z M14,18h-2v-6h2V18z M18,18h-2v-6h2V18z M22,18h-2v-6h2V18z M26,18h-2v-6h2V18z M30,18h-2v-6h2V18z M34,18h-2v-6h2V18z M38,18h-2v-6h2V18z"/>
</svg>
