<?xml version="1.0" encoding="UTF-8" standalone="no"?>
<svg xmlns="http://www.w3.org/2000/svg" viewBox="0 0 32 32" width="48px" height="48px">
  <path d="M32 24.795c-1.164.296-1.884.013-2.53-.957l-4.594-6.356-.664-.88-5.365 7.257c-.613.873-1.256 1.253-2.4.944l6.87-9.222-6.396-8.33c1.1-.214 1.86-.105 2.535.88l4.765 6.435 4.8-6.4c.615-.873 1.276-1.205 2.38-.883l-2.48 3.288-3.36 4.375c-.4.5-.345.842.023 1.325L32 24.795zM.008 15.427l.975-5.273c.336-1.852 1.96-3.434 4.04-3.434h13.294c-1.307 1.308-1.307 2.712-1.307 3.712v13.618c0 1.898-.767 3.575-2.286 4.338H1.687c-1.538 0-1.845-.53-1.58-1.794l.776-4.23H15.56c1.308 0 1.97-.878 1.97-2.186V15.9c0-1.308-.662-2.056-1.97-2.056H2.23c-.656 0-.98.186-1.13.645-.16.495-.23 1.025-.23 1.025L.008 15.427z" fill="#ffffff"/>
</svg>
