<?xml version="1.0" encoding="UTF-8"?>
<svg xmlns="http://www.w3.org/2000/svg" viewBox="0 0 48 48" width="48px" height="48px">
  <path fill="#1976d2" d="M38.193,22.177l-2.201-2.201l-2.771,2.771l-6.646-6.646l-0.707,0.707l6.646,6.646l-2.771,2.771 l2.201,2.201c0.586,0.586,1.535,0.586,2.121,0l4.129-4.129C38.779,23.712,38.779,22.763,38.193,22.177z"/>
  <polygon fill="#1976d2" points="18.343,27.778 20.464,25.657 21.171,26.364 19.05,28.485"/>
  <polygon fill="#1976d2" points="21.171,21.636 20.464,22.343 18.343,20.222 19.05,19.515"/>
  <polygon fill="#1976d2" points="25.657,27.536 26.364,26.829 28.485,28.95 27.778,29.657"/>
  <polygon fill="#1976d2" points="28.485,19.05 26.364,21.171 25.657,20.464 27.778,18.343"/>
  <path fill="#1976d2" d="M24,28.5c-2.481,0-4.5-2.019-4.5-4.5s2.019-4.5,4.5-4.5s4.5,2.019,4.5,4.5S26.481,28.5,24,28.5z M24,20.5c-1.93,0-3.5,1.57-3.5,3.5s1.57,3.5,3.5,3.5s3.5-1.57,3.5-3.5S25.93,20.5,24,20.5z"/>
  <path fill="#1976d2" d="M14.222,27.222l-4.129,4.129c-0.586,0.586-0.586,1.535,0,2.121l2.201,2.201 c0.586,0.586,1.535,0.586,2.121,0l4.129-4.129L14.222,27.222z"/>
  <path fill="#1976d2" d="M14.222,20.778l4.322,4.322l4.322-4.322l-4.129-4.129c-0.586-0.586-1.535-0.586-2.121,0l-2.201,2.201 C13.829,19.435,13.829,20.385,14.222,20.778z"/>
  <path fill="#1976d2" d="M33.879,31.543l-4.322-4.322l-4.322,4.322l4.129,4.129c0.586,0.586,1.535,0.586,2.121,0l2.201-2.201 C34.271,32.886,34.271,31.936,33.879,31.543z"/>
</svg>
