<?xml version="1.0" encoding="UTF-8"?>
<svg xmlns="http://www.w3.org/2000/svg" viewBox="0 0 48 48" width="48px" height="48px">
  <path fill="#ffcc80" d="M35.547 42.431l-3.182-3.182-2.121 2.121 3.182 3.182c.586.586 1.536.586 2.121 0S36.133 43.017 35.547 42.431zM38.547 24.431l-12.728-12.728c-.586-.586-1.536-.586-2.121 0-.586.586-.586 1.536 0 2.121l12.728 12.728c.586.586 1.536.586 2.121 0C39.133 25.967 39.133 25.017 38.547 24.431zM17.547 24.431l-12.728-12.728c-.586-.586-1.536-.586-2.121 0-.586.586-.586 1.536 0 2.121l12.728 12.728c.586.586 1.536.586 2.121 0C18.133 25.967 18.133 25.017 17.547 24.431zM24.404 36.718c-.586.586-.586 1.536 0 2.121.586.586 1.536.586 2.121 0L41.376 24c.586-.586.586-1.536 0-2.121L26.525 7.029c-.586-.586-1.536-.586-2.121 0-.586.586-.586 1.536 0 2.121L38.193 22.939 24.404 36.718zM12.525 24.431c.586.586 1.536.586 2.121 0 .586-.586.586-1.536 0-2.121L6.525 14.189c-.586-.586-1.536-.586-2.121 0-.586.586-.586 1.536 0 2.121L12.525 24.431z"/>
  <path fill="#00bcd4" d="M30.5,15c-1.381,0-2.5-1.119-2.5-2.5s1.119-2.5,2.5-2.5s2.5,1.119,2.5,2.5S31.881,15,30.5,15z M17.5,15 c-1.381,0-2.5-1.119-2.5-2.5s1.119-2.5,2.5-2.5s2.5,1.119,2.5,2.5S18.881,15,17.5,15z"/>
</svg>
