<?xml version="1.0" encoding="UTF-8"?>
<svg xmlns="http://www.w3.org/2000/svg" viewBox="0 0 48 48" width="48px" height="48px">
  <path fill="#e64a19" d="M24,7L24,7c2.761,0,5,2.239,5,5v0c0,2.761-2.239,5-5,5h0c-2.761,0-5-2.239-5-5v0 C19,9.239,21.239,7,24,7z"/>
  <path fill="#e64a19" d="M24,34L24,34c2.761,0,5,2.239,5,5v0c0,2.761-2.239,5-5,5h0c-2.761,0-5-2.239-5-5v0 C19,36.239,21.239,34,24,34z"/>
  <path fill="#e64a19" d="M12.857,13L12.857,13c1.381,2.391,0.559,5.455-1.832,6.836l0,0 c-2.391,1.381-5.455,0.559-6.836-1.832l0,0c-1.381-2.391-0.559-5.455,1.832-6.836l0,0C8.412,9.787,11.476,10.609,12.857,13z"/>
  <path fill="#e64a19" d="M43.811,30L43.811,30c1.381,2.391,0.559,5.455-1.832,6.836l0,0 c-2.391,1.381-5.455,0.559-6.836-1.832l0,0c-1.381-2.391-0.559-5.455,1.832-6.836l0,0C39.366,26.787,42.43,27.609,43.811,30z"/>
  <path fill="#e64a19" d="M12.857,35L12.857,35c-1.381,2.391-4.445,3.213-6.836,1.832l0,0 c-2.391-1.381-3.213-4.445-1.832-6.836l0,0c1.381-2.391,4.445-3.213,6.836-1.832l0,0C13.416,29.545,14.238,32.609,12.857,35z"/>
  <path fill="#e64a19" d="M43.811,18L43.811,18c-1.381,2.391-4.445,3.213-6.836,1.832l0,0 c-2.391-1.381-3.213-4.445-1.832-6.836l0,0c1.381-2.391,4.445-3.213,6.836-1.832l0,0C44.37,12.545,45.193,15.609,43.811,18z"/>
  <path fill="#ffa726" d="M34,24L34,24c0,5.524-4.477,10-10,10h0c-5.523,0-10-4.476-10-10v0c0-5.524,4.477-10,10-10h0 C29.523,14,34,18.476,34,24z"/>
  <path fill="#fff" d="M22.941,28c-0.693,0-1.33-0.256-1.848-0.773c-0.525-0.525-0.781-1.143-0.781-1.836 c0-0.693,0.256-1.311,0.781-1.836c0.518-0.518,1.154-0.773,1.848-0.773c0.693,0,1.33,0.256,1.848,0.773 c0.525,0.525,0.781,1.143,0.781,1.836c0,0.693-0.256,1.311-0.781,1.836C24.271,27.744,23.634,28,22.941,28z M29.941,28 c-0.693,0-1.33-0.256-1.848-0.773c-0.525-0.525-0.781-1.143-0.781-1.836c0-0.693,0.256-1.311,0.781-1.836 c0.518-0.518,1.154-0.773,1.848-0.773c0.693,0,1.33,0.256,1.848,0.773c0.525,0.525,0.781,1.143,0.781,1.836 c0,0.693-0.256,1.311-0.781,1.836C31.271,27.744,30.634,28,29.941,28z"/>
</svg>
