<?xml version="1.0" encoding="UTF-8"?>
<svg xmlns="http://www.w3.org/2000/svg" viewBox="0 0 48 48" width="48px" height="48px">
  <polygon fill="#0d91d6" points="24,6 17.99,12.35 11.97,18.69 6,25.03 6,6"/>
  <polygon fill="#f88909" points="24,6 23.96,6 17.97,12.33 11.96,18.68 6,24.97 6,25.03 6,42 14.69,33.31 20.87,27.13 27.06,20.94 33.25,14.75 42,6"/>
  <polygon fill="#c757bc" points="14.69,33.31 6,42 6,42 20.87,27.13 27.06,20.94 33.25,14.75 42,6 42,6 42,6 33.31,14.69"/>
  <polygon fill="#d3638f" points="20.87,27.13 14.69,33.31 6,42 27.06,20.94"/>
  <polygon fill="#e07063" points="27.06,20.94 6,42 33.25,14.75"/>
  <polygon fill="#ec7d36" points="33.25,14.75 6,42 42,6"/>
  <polygon fill="#f88909" points="42,6 6,42 42,6"/>
</svg>
