<?xml version="1.0" encoding="UTF-8"?>
<svg xmlns="http://www.w3.org/2000/svg" viewBox="0 0 48 48" width="48px" height="48px">
  <path fill="#2196f3" d="M24,4C13,4,4,13,4,24s9,20,20,20s20-9,20-20S35,4,24,4z"/>
  <path fill="#fff" d="M24,8c-8.8,0-16,7.2-16,16s7.2,16,16,16s16-7.2,16-16S32.8,8,24,8z M24,37c-7.2,0-13-5.8-13-13 s5.8-13,13-13s13,5.8,13,13S31.2,37,24,37z"/>
  <path fill="#fff" d="M24,13c-6.1,0-11,4.9-11,11s4.9,11,11,11s11-4.9,11-11S30.1,13,24,13z M24,33c-5,0-9-4-9-9s4-9,9-9 s9,4,9,9S29,33,24,33z"/>
  <path fill="#fff" d="M24,19c-2.8,0-5,2.2-5,5s2.2,5,5,5s5-2.2,5-5S26.8,19,24,19z M24,27c-1.7,0-3-1.3-3-3s1.3-3,3-3 s3,1.3,3,3S25.7,27,24,27z"/>
  <path fill="#fff" d="M24,22c-1.1,0-2,0.9-2,2s0.9,2,2,2s2-0.9,2-2S25.1,22,24,22z"/>
</svg>
