<?xml version="1.0" encoding="UTF-8"?>
<svg xmlns="http://www.w3.org/2000/svg" viewBox="0 0 48 48" width="48px" height="48px">
  <path fill="#212121" d="M18.974,31.5c0,0.828-0.671,1.5-1.5,1.5s-1.5-0.672-1.5-1.5v-14c0-0.828,0.671-1.5,1.5-1.5s1.5,0.672,1.5,1.5 V31.5z"/>
  <path fill="#212121" d="M27.974,30.5c0,0.828-0.671,1.5-1.5,1.5s-1.5-0.672-1.5-1.5v-12c0-0.828,0.671-1.5,1.5-1.5s1.5,0.672,1.5,1.5 V30.5z"/>
  <path fill="#212121" d="M33.974,30.5c0,0.828-0.671,1.5-1.5,1.5s-1.5-0.672-1.5-1.5v-12c0-0.828,0.671-1.5,1.5-1.5s1.5,0.672,1.5,1.5 V30.5z"/>
  <path fill="#212121" d="M37.974,31.5c0,0.828-0.671,1.5-1.5,1.5s-1.5-0.672-1.5-1.5v-14c0-0.828,0.671-1.5,1.5-1.5s1.5,0.672,1.5,1.5 V31.5z"/>
  <path fill="#212121" d="M8.974,32c0,0.828-0.671,1.5-1.5,1.5s-1.5-0.672-1.5-1.5V18c0-0.828,0.671-1.5,1.5-1.5s1.5,0.672,1.5,1.5V32z" />
  <path fill="#212121" d="M14.974,32c0,0.828-0.671,1.5-1.5,1.5s-1.5-0.672-1.5-1.5V18c0-0.828,0.671-1.5,1.5-1.5s1.5,0.672,1.5,1.5V32z" />
  <path fill="#212121" d="M43.974,32c0,0.828-0.671,1.5-1.5,1.5s-1.5-0.672-1.5-1.5V18c0-0.828,0.671-1.5,1.5-1.5s1.5,0.672,1.5,1.5V32z" />
</svg>
