<?xml version="1.0" encoding="UTF-8"?>
<svg xmlns="http://www.w3.org/2000/svg" viewBox="0 0 48 48" width="48px" height="48px">
  <path fill="#2196f3" d="M24,5C12.402,5,3,12.298,3,21c0,8.702,9.402,16,21,16s21-7.298,21-16C45,12.298,35.598,5,24,5z"/>
  <path fill="#fff" d="M11.602,26.601c-1.04,0-1.936-0.161-2.687-0.483c-0.751-0.322-1.348-0.796-1.792-1.419 c-0.444-0.623-0.763-1.374-0.958-2.253c-0.195-0.879-0.242-1.855-0.142-2.928c0.1-1.073,0.329-2.055,0.685-2.943 c0.356-0.888,0.831-1.653,1.425-2.295c0.594-0.642,1.31-1.138,2.146-1.488c0.836-0.35,1.78-0.525,2.832-0.525 c0.574,0,1.119,0.042,1.635,0.126c0.516,0.084,0.954,0.184,1.316,0.299c0.362,0.115,0.65,0.238,0.865,0.371 c0.215,0.133,0.343,0.242,0.386,0.328c0.043,0.086,0.077,0.21,0.1,0.371c0.023,0.161,0.027,0.371,0.014,0.629 c-0.014,0.258-0.043,0.58-0.086,0.965c-0.043,0.385-0.094,0.846-0.156,1.382c-0.062,0.537-0.124,0.987-0.185,1.354 c-0.062,0.367-0.124,0.676-0.185,0.929c-0.062,0.253-0.124,0.447-0.185,0.581c-0.062,0.134-0.132,0.21-0.213,0.228 c-0.081,0.018-0.185-0.009-0.313-0.085c-0.128-0.076-0.296-0.18-0.499-0.313c-0.203-0.133-0.458-0.266-0.764-0.399 c-0.306-0.133-0.677-0.199-1.116-0.199c-0.43,0-0.825,0.099-1.188,0.299c-0.362,0.199-0.677,0.504-0.944,0.914 c-0.267,0.41-0.473,0.928-0.614,1.553c-0.142,0.625-0.203,1.363-0.185,2.211c0.019,0.848,0.124,1.553,0.314,2.111 c0.19,0.558,0.427,1.001,0.714,1.325c0.287,0.324,0.604,0.552,0.958,0.685c0.354,0.133,0.7,0.199,1.045,0.199 c0.43,0,0.825-0.066,1.188-0.199c0.362-0.133,0.677-0.275,0.944-0.428c0.267-0.153,0.499-0.294,0.7-0.428 c0.2-0.134,0.348-0.199,0.442-0.199c0.094,0,0.176,0.047,0.242,0.142c0.066,0.095,0.119,0.275,0.156,0.542 c0.038,0.267,0.057,0.629,0.057,1.086c0,0.457-0.014,1.049-0.043,1.773c-0.029,0.153-0.1,0.275-0.213,0.371 c-0.114,0.096-0.278,0.18-0.499,0.256c-0.221,0.076-0.499,0.138-0.829,0.185c-0.33,0.047-0.74,0.071-1.231,0.071H11.602z"/>
  <path fill="#fff" d="M24.965,26.601c-0.258,0-0.483-0.095-0.671-0.285c-0.188-0.19-0.339-0.504-0.456-0.942 c-0.117-0.438-0.2-1.021-0.256-1.745c-0.056-0.724-0.085-1.631-0.085-2.723c0-1.092,0.028-1.999,0.085-2.723 c0.056-0.724,0.139-1.307,0.256-1.745c0.117-0.438,0.268-0.752,0.456-0.942c0.188-0.19,0.413-0.285,0.671-0.285h3.287 c0.688,0,1.271,0.071,1.75,0.214c0.479,0.143,0.865,0.342,1.159,0.599c0.294,0.257,0.508,0.566,0.642,0.928 c0.134,0.362,0.2,0.761,0.2,1.198c0,0.41-0.062,0.79-0.185,1.14c-0.124,0.35-0.301,0.657-0.528,0.921 c-0.228,0.264-0.499,0.476-0.814,0.637c-0.315,0.161-0.668,0.261-1.059,0.3c0.287,0.038,0.561,0.128,0.814,0.271 c0.253,0.143,0.475,0.333,0.671,0.571c0.195,0.238,0.351,0.519,0.471,0.842c0.119,0.323,0.185,0.68,0.185,1.071 c0,0.495-0.081,0.937-0.242,1.326c-0.162,0.389-0.406,0.718-0.728,0.985c-0.323,0.267-0.728,0.471-1.216,0.613 c-0.488,0.142-1.059,0.214-1.707,0.214H24.965z M26.287,19.326h1.188c0.287,0,0.532-0.038,0.742-0.114 c0.21-0.076,0.382-0.19,0.514-0.342c0.132-0.152,0.231-0.342,0.299-0.571c0.067-0.229,0.1-0.495,0.1-0.799 c0-0.304-0.038-0.57-0.114-0.799c-0.076-0.229-0.185-0.419-0.328-0.571c-0.143-0.152-0.32-0.266-0.528-0.342 c-0.21-0.076-0.447-0.114-0.714-0.114h-1.159V19.326z M26.287,23.154v2.496h1.472c0.287,0,0.533-0.043,0.742-0.128 c0.21-0.085,0.382-0.204,0.514-0.356c0.132-0.152,0.231-0.333,0.299-0.542c0.067-0.209,0.1-0.433,0.1-0.671 c0-0.514-0.138-0.918-0.414-1.212c-0.276-0.294-0.7-0.442-1.273-0.442h-1.444v0.856H26.287z"/>
  <path fill="#fff" d="M36.398,26.601c-1.04,0-1.936-0.161-2.687-0.483c-0.751-0.322-1.348-0.796-1.792-1.419 c-0.444-0.623-0.763-1.374-0.958-2.253c-0.195-0.879-0.242-1.855-0.142-2.928c0.1-1.073,0.329-2.055,0.685-2.943 c0.356-0.888,0.831-1.653,1.425-2.295c0.594-0.642,1.31-1.138,2.146-1.488c0.836-0.35,1.78-0.525,2.832-0.525 c0.574,0,1.119,0.042,1.635,0.126c0.516,0.084,0.954,0.184,1.316,0.299c0.362,0.115,0.65,0.238,0.865,0.371 c0.215,0.133,0.343,0.242,0.386,0.328c0.043,0.086,0.077,0.21,0.1,0.371c0.023,0.161,0.027,0.371,0.014,0.629 c-0.014,0.258-0.043,0.58-0.086,0.965c-0.043,0.385-0.094,0.846-0.156,1.382c-0.062,0.537-0.124,0.987-0.185,1.354 c-0.062,0.367-0.124,0.676-0.185,0.929c-0.062,0.253-0.124,0.447-0.185,0.581c-0.062,0.134-0.132,0.21-0.213,0.228 c-0.081,0.018-0.185-0.009-0.313-0.085c-0.128-0.076-0.296-0.18-0.499-0.313c-0.203-0.133-0.458-0.266-0.764-0.399 c-0.306-0.133-0.677-0.199-1.116-0.199c-0.43,0-0.825,0.099-1.188,0.299c-0.362,0.199-0.677,0.504-0.944,0.914 c-0.267,0.41-0.473,0.928-0.614,1.553c-0.142,0.625-0.203,1.363-0.185,2.211c0.019,0.848,0.124,1.553,0.314,2.111 c0.19,0.558,0.427,1.001,0.714,1.325c0.287,0.324,0.604,0.552,0.958,0.685c0.354,0.133,0.7,0.199,1.045,0.199 c0.43,0,0.825-0.066,1.188-0.199c0.362-0.133,0.677-0.275,0.944-0.428c0.267-0.153,0.499-0.294,0.7-0.428 c0.2-0.134,0.348-0.199,0.442-0.199c0.094,0,0.176,0.047,0.242,0.142c0.066,0.095,0.119,0.275,0.156,0.542 c0.038,0.267,0.057,0.629,0.057,1.086c0,0.457-0.014,1.049-0.043,1.773c-0.029,0.153-0.1,0.275-0.213,0.371 c-0.114,0.096-0.278,0.18-0.499,0.256c-0.221,0.076-0.499,0.138-0.829,0.185c-0.33,0.047-0.74,0.071-1.231,0.071H36.398z"/>
</svg>
