<?xml version="1.0" encoding="UTF-8"?>
<svg xmlns="http://www.w3.org/2000/svg" viewBox="0 0 48 48" width="48px" height="48px">
  <path fill="#fff" d="M44.083,29.79c-0.183-0.829-0.935-1.796-2.452-1.796c-0.31,0-0.649,0.039-1.035,0.119c-0.708,0.146-1.311,0.217-1.842,0.241c4.133-7.04,6.816-16.819,4.159-20.214c-3.501-4.473-8.214-5.141-10.711-5.141L31.967,3c-0.929,0.015-1.893,0.129-2.863,0.339l-3.583,0.774C25.033,4.052,24.536,4.009,24.018,4l-0.03,0l-0.016,0l-0.152-0.001c-1.593,0-3.046,0.338-4.341,0.973l-1.251-0.493c-1.72-0.678-4.308-1.485-6.868-1.485c-0.144,0-0.287,0.003-0.431,0.008C8.407,3.093,6.241,4.05,4.664,5.769C2.696,7.915,1.8,11.054,2.003,15.1C2.114,17.209,4.59,29.165,7.647,36.767c1.456,3.615,3.024,6.592,4.674,8.85c2.126,2.927,4.343,4.305,6.584,4.082c0.742-0.073,1.54-0.318,2.649-0.655c0.282-0.086,0.594-0.18,0.943-0.284c1.893-0.569,3.578-0.775,5.004-0.607c1.147,0.135,2.095,0.497,2.925,1.113c1.363,1.023,2.869,1.585,4.419,1.645c0.084,0.004,0.167,0.005,0.251,0.005c2.754,0,5.021-1.529,6.723-4.544c2.264-4.006,3.66-9.412,4.332-11.7C46.625,32.271,44.807,31.176,44.083,29.79z"/>
  <path fill="#0277bd" d="M33,24c-0.552,0-1-0.448-1-1v-3c0-0.552,0.448-1,1-1s1,0.448,1,1v3C34,23.552,33.552,24,33,24z"/>
  <path fill="#0277bd" d="M33,28c-0.552,0-1-0.448-1-1s0.448-1,1-1s1,0.448,1,1S33.552,28,33,28z"/>
  <path fill="#0277bd" d="M20,25c-0.552,0-1-0.448-1-1v-3c0-0.552,0.448-1,1-1s1,0.448,1,1v3C21,24.552,20.552,25,20,25z"/>
  <path fill="#0277bd" d="M20,29c-0.552,0-1-0.448-1-1s0.448-1,1-1s1,0.448,1,1S20.552,29,20,29z"/>
  <path fill="#0277bd" d="M37.375,33.095c-0.325-1.474-1.614-2.521-3.542-2.521c-0.35,0-0.732,0.043-1.175,0.135c-0.66,0.136-1.235,0.212-1.775,0.248c-0.151-0.26-0.306-0.52-0.465-0.779c4.105-7.013,6.724-16.172,4.231-19.306c-3.201-4.094-7.538-4.731-9.852-4.731l-0.232,0.001c-0.838,0.013-1.714,0.121-2.648,0.321l-3.569,0.77c-0.492-0.064-0.995-0.099-1.496-0.106l-0.13-0.001h-0.021l-0.171-0.001c-1.558,0-2.962,0.335-4.23,0.981c-0.155-0.061-0.315-0.122-0.479-0.185c-1.661-0.655-4.168-1.438-6.66-1.438c-0.132,0-0.265,0.002-0.396,0.007C8.8,6.55,6.812,7.443,5.368,9.036c-1.834,2.019-2.669,4.954-2.475,8.707c0.106,2.012,2.596,13.893,5.605,21.371c1.4,3.479,2.914,6.357,4.503,8.545c1.623,2.235,3.619,4.169,5.832,3.947c0.625-0.062,1.372-0.284,2.416-0.604c0.284-0.087,0.599-0.182,0.952-0.286c1.985-0.597,3.755-0.814,5.255-0.636c1.243,0.147,2.279,0.546,3.185,1.216c1.224,0.911,2.581,1.413,3.968,1.467c0.075,0.003,0.149,0.004,0.224,0.004c2.454,0,4.499-1.373,6.07-4.082C37.373,40.57,38.724,35.305,39.375,33.095z M38.594,32.883c-0.665,2.304-2.017,7.354-4.197,11.22c-1.402,2.483-3.301,3.77-5.642,3.77c-0.067,0-0.134-0.001-0.202-0.004c-1.166-0.045-2.285-0.474-3.325-1.272c-1.089-0.813-2.352-1.289-3.848-1.462c-1.693-0.199-3.657,0.036-5.834,0.695c-0.356,0.105-0.674,0.201-0.96,0.289c-1.06,0.323-1.711,0.51-2.214,0.561c-1.835,0.186-3.451-1.507-4.878-3.493c-1.531-2.119-3.002-4.921-4.371-8.327c-2.923-7.25-5.367-18.959-5.466-20.809c-0.175-3.407,0.537-6.033,2.114-7.785c1.19-1.312,2.816-2.05,4.691-2.138c0.119-0.005,0.24-0.007,0.36-0.007c2.307,0,4.729,0.759,6.298,1.388c0.135,0.053,0.267,0.106,0.394,0.157c-0.888,0.647-1.665,1.407-2.325,2.268c-1.799,2.362-2.55,5.443-2.226,9.154c0.402,4.587,2.267,9.559,5.239,13.99c1.681,2.504,3.497,4.442,5.309,5.657c-0.118,0.078-0.235,0.16-0.35,0.247c-1.178,0.884-2.356,1.768-4.692,1.768c-0.001,0-0.002,0-0.003,0c-1.594,0-2.561-0.302-3.366-0.558c-0.28-0.089-0.527-0.168-0.794-0.222c-0.985-0.199-1.941,0.443-2.142,1.429c-0.201,0.986,0.443,1.941,1.429,2.142c0.367,0.074,0.688,0.175,1.045,0.285c0.742,0.236,1.77,0.56,3.548,0.56c0.001,0,0.003,0,0.004,0c2.883,0,4.347-1.086,5.676-2.058c0.051-0.037,0.101-0.074,0.151-0.11c0.468,0.232,0.945,0.438,1.43,0.617c1.624,0.599,3.203,0.903,4.692,0.903c2.065,0,3.952-0.533,5.613-1.587c0.522-0.33,1.009-0.706,1.464-1.119c0.078,0.03,0.157,0.059,0.236,0.087c0.946,0.332,1.849,0.646,2.881,0.646c0.681,0,1.293-0.134,1.845-0.396c0.558-0.267,1.023-0.678,1.351-1.19c0.328-0.513,0.514-1.121,0.514-1.758C39.834,33.483,39.101,33.043,38.594,32.883z"/>
  <path fill="#0277bd" d="M9.029,21.126c-0.841,0-1.569-0.53-1.846-1.321c-0.311-0.881-0.018-1.861,0.739-2.458c0.381-0.3,0.546-0.814,0.414-1.29c-0.133-0.476-0.55-0.821-1.04-0.859c-0.127-0.01-0.254-0.015-0.38-0.015c-1.543,0-2.979,0.852-3.734,2.222c-0.791,1.436-0.731,3.173,0.158,4.55c0.889,1.375,2.408,2.197,4.02,2.197c0.138,0,0.276-0.006,0.414-0.018c1.2-0.105,2.225-0.74,2.791-1.744c0.564-1.002,0.582-2.181,0.05-3.195C10.501,20.691,9.794,21.126,9.029,21.126z"/>
  <path fill="#0277bd" d="M40.147,33.104c-0.254,0-0.509-0.064-0.74-0.192c-0.73-0.409-0.991-1.334-0.583-2.064c0.202-0.36,0.258-0.786,0.156-1.196c-0.101-0.41-0.375-0.754-0.768-0.963c-0.783-0.418-1.778-0.115-2.196,0.669c-0.839,1.584-0.347,3.534,1.144,4.559c0.782,0.538,1.713,0.822,2.662,0.822c0.566,0,1.132-0.101,1.67-0.305c1.082-0.41,1.931-1.24,2.393-2.333c0.461-1.091,0.397-2.313-0.18-3.428c-0.39-0.75-1.321-1.04-2.071-0.65c-0.75,0.39-1.04,1.321-0.65,2.071c0.147,0.283,0.156,0.603,0.026,0.895c-0.13,0.291-0.381,0.504-0.687,0.583C40.28,33.095,40.213,33.104,40.147,33.104z"/>
  <path fill="#0277bd" d="M12.567,42.86c-0.138,0-0.277-0.006-0.415-0.018c-1.2-0.105-2.225-0.74-2.791-1.744c-0.564-1.002-0.582-2.181-0.05-3.195c0.395-0.752,1.321-1.041,2.071-0.646c0.752,0.396,1.041,1.32,0.646,2.072c-0.132,0.251-0.142,0.543-0.029,0.802c0.114,0.26,0.333,0.453,0.608,0.534c0.554,0.165,1.12-0.148,1.262-0.697c0.311-1.201-0.399-2.442-1.599-2.786c-0.381-0.11-0.781-0.165-1.186-0.165c-1.001,0-1.961,0.344-2.731,0.978c-1.245,1.027-1.768,2.68-1.351,4.256c0.416,1.575,1.702,2.761,3.303,3.053c0.146,0.027,0.293,0.04,0.44,0.04c0.7,0,1.376-0.27,1.883-0.764c0.507-0.494,0.787-1.165,0.787-1.889c0-0.713-0.29-1.387-0.801-1.883c-0.517-0.502-1.2-0.778-1.92-0.778c-0.079,0-0.159,0.003-0.238,0.01c-0.989,0.086-1.722,0.966-1.636,1.954c0.086,0.989,0.966,1.723,1.954,1.636c0.01-0.001,0.021-0.001,0.031-0.001c0.074,0,0.147,0.029,0.2,0.081c0.052,0.051,0.082,0.12,0.082,0.192c0,0.073-0.028,0.142-0.08,0.194C12.719,42.831,12.646,42.86,12.567,42.86z"/>
  <path fill="#0277bd" d="M26.867,46.916c-0.552,0-1-0.447-1-1c0-0.553,0.448-1,1-1c0.046,0,0.092,0.003,0.139,0.01c0.181,0.022,0.347-0.039,0.471-0.171c0.124-0.132,0.174-0.303,0.142-0.486c-0.063-0.354-0.401-0.6-0.752-0.6c-0.171,0-0.336,0.056-0.474,0.162c-0.44,0.339-1.072,0.258-1.411-0.183c-0.339-0.441-0.258-1.072,0.183-1.411c0.491-0.378,1.077-0.578,1.702-0.578c1.463,0,2.679,1.134,2.752,2.595c0.038,0.752-0.221,1.464-0.729,2.008c-0.507,0.544-1.21,0.851-1.975,0.851C26.896,46.915,26.882,46.916,26.867,46.916z"/>
</svg>
