<?xml version="1.0" encoding="UTF-8"?>
<svg xmlns="http://www.w3.org/2000/svg" viewBox="0 0 48 48" width="48px" height="48px">
  <path fill="#7e57c2" d="M23,4c-6.617,0-12,7.27-12,16.205c0,4.834,1.582,9.169,4.078,12.136C15.03,32.554,15,32.773,15,33 c0,1.657,1.343,3,3,3s3-1.343,3-3s-1.343-3-3-3c-0.315,0-0.612,0.062-0.897,0.152C15.206,27.731,14,24.175,14,20.205 C14,12.924,18.037,7,23,7c3.837,0,7.111,3.547,8.404,8.518c1.122,0.346,2.237,0.782,3.33,1.308C33.579,9.508,28.759,4,23,4z"/>
  <path fill="#7e57c2" d="M35.507,20c-0.342,0-0.677,0.035-1.011,0.087C32.538,14.441,28.075,10,22.483,10 c-6.616,0-11.983,6.262-11.999,14h-0.009c0,0.224,0.014,0.448,0.026,0.671L10.5,25c-0.001,0.007-0.002,0.015-0.002,0.022 l-0.02,0.003C10.169,26.207,10,27.574,10,29c0,6.075,4.925,11,11,11c3.122,0,5.939-1.306,7.946-3.395 c0.64,0.134,1.294,0.211,1.961,0.211c5.207,0,9.446-3.8,10.272-8.769C41.121,27.364,41,26.702,41,26 C41,22.686,38.314,20,35.507,20z M31.194,30.678c-0.919,1.595-2.44,2.781-4.194,3.295c-1.754,0.514-3.62,0.324-5.215-0.596 c-1.595-0.919-2.781-2.44-3.295-4.194c-0.514-1.754-0.324-3.62,0.596-5.215c0.919-1.595,2.44-2.781,4.194-3.295 c0.52-0.152,1.049-0.226,1.575-0.226c1.24,0,2.463,0.323,3.64,0.822c1.595,0.919,2.781,2.44,3.295,4.194 C32.304,27.217,32.114,29.084,31.194,30.678z M35.507,33c-1.651,0-3.127-0.74-4.136-1.907c0.131-0.202,0.265-0.401,0.382-0.613 c0.318-0.574,0.573-1.172,0.772-1.779c0.348,0.194,0.72,0.334,1.108,0.428c1.114,0.3,2.28,0.076,3.238-0.612 c0.959-0.688,1.591-1.735,1.767-2.931c0.177-1.196-0.125-2.391-0.845-3.35c-0.7-0.94-1.737-1.561-2.919-1.744 c-0.742-0.115-1.488-0.059-2.184,0.163c-0.008-0.302-0.024-0.604-0.056-0.905c-0.033-0.311-0.08-0.618-0.138-0.919 c1.073-0.363,2.219-0.428,3.346-0.196c1.964,0.303,3.689,1.341,4.855,2.916c1.166,1.575,1.65,3.514,1.365,5.461 C41.071,30.145,38.516,33,35.507,33z"/>
</svg>
