<?xml version="1.0" encoding="UTF-8"?>
<svg xmlns="http://www.w3.org/2000/svg" viewBox="0 0 48 48" width="48px" height="48px">
  <path fill="#FF8A65" d="M24,5C13.5,5,5,13.5,5,24s8.5,19,19,19s19-8.5,19-19S34.5,5,24,5z M24,39c-8.3,0-15-6.7-15-15 s6.7-15,15-15s15,6.7,15,15S32.3,39,24,39z"/>
  <path fill="#FF8A65" d="M24 11A2 2 0 1 0 24 15A2 2 0 1 0 24 11Z"/>
  <path fill="#FF8A65" d="M24 33A2 2 0 1 0 24 37A2 2 0 1 0 24 33Z"/>
  <path fill="#FF8A65" d="M13 17.5A2 2 0 1 0 13 21.5A2 2 0 1 0 13 17.5Z"/>
  <path fill="#FF8A65" d="M35 26.5A2 2 0 1 0 35 30.5A2 2 0 1 0 35 26.5Z"/>
  <path fill="#FF8A65" d="M13 26.5A2 2 0 1 0 13 30.5A2 2 0 1 0 13 26.5Z"/>
  <path fill="#FF8A65" d="M35 17.5A2 2 0 1 0 35 21.5A2 2 0 1 0 35 17.5Z"/>
  <path fill="#FF8A65" d="M17.5 13A2 2 0 1 0 17.5 17A2 2 0 1 0 17.5 13Z"/>
  <path fill="#FF8A65" d="M30.5 31A2 2 0 1 0 30.5 35A2 2 0 1 0 30.5 31Z"/>
  <path fill="#FF8A65" d="M17.5 31A2 2 0 1 0 17.5 35A2 2 0 1 0 17.5 31Z"/>
  <path fill="#FF8A65" d="M30.5 13A2 2 0 1 0 30.5 17A2 2 0 1 0 30.5 13Z"/>
  <path fill="#FF8A65" d="M24 20A4 4 0 1 0 24 28A4 4 0 1 0 24 20Z"/>
</svg>
