<?xml version="1.0" encoding="UTF-8"?>
<svg xmlns="http://www.w3.org/2000/svg" viewBox="0 0 48 48" width="48px" height="48px">
  <path fill="#00c853" d="M24,4C13,4,4,13,4,24s9,20,20,20s20-9,20-20S35,4,24,4z"/>
  <path fill="#fff" d="M24,8C15.2,8,8,15.2,8,24s7.2,16,16,16s16-7.2,16-16S32.8,8,24,8z"/>
  <path fill="#00c853" d="M24,12c-6.6,0-12,5.4-12,12s5.4,12,12,12s12-5.4,12-12S30.6,12,24,12z"/>
  <path fill="#fff" d="M24,16c-4.4,0-8,3.6-8,8s3.6,8,8,8s8-3.6,8-8S28.4,16,24,16z"/>
  <path fill="#00c853" d="M24,20c-2.2,0-4,1.8-4,4s1.8,4,4,4s4-1.8,4-4S26.2,20,24,20z"/>
  <path fill="#fff" d="M24,24c-0.5,0-1,0.2-1.4,0.6S22,25.5,22,26c0,0.5,0.2,1,0.6,1.4S23.5,28,24,28c0.5,0,1-0.2,1.4-0.6 S26,26.5,26,26c0-0.5-0.2-1-0.6-1.4S24.5,24,24,24z"/>
</svg>
