<?xml version="1.0" encoding="UTF-8"?>
<svg xmlns="http://www.w3.org/2000/svg" viewBox="0 0 48 48" width="48px" height="48px">
  <path fill="#ff3e00" d="M33.466,7.259c-3.47-4.836-10.334-6.268-15.959-3.285l-9.019,4.813c-2.56,1.367-4.525,3.682-5.408,6.459 c-0.765,2.418-0.698,5.004,0.183,7.389c-0.776,1.177-1.324,2.496-1.628,3.892c-0.768,3.564,0.125,7.398,2.365,10.164 c3.47,4.836,10.334,6.268,15.959,3.285l9.019-4.813c2.56-1.367,4.525-3.682,5.408-6.459c0.765-2.418,0.698-5.004-0.183-7.389 c0.776-1.177,1.324-2.496,1.628-3.892C36.599,13.859,35.706,10.025,33.466,7.259z"/>
  <path fill="#ffe2d9" d="M18.721,36.916c-3.121-0.945-5.342-3.254-5.911-6.193c-0.18-0.916-0.157-1.823,0.039-2.703 c0.019-0.086,0.047-0.171,0.07-0.257c0.026,0.056,0.066,0.106,0.081,0.163c0.562,2.305,2.127,4.331,4.315,5.396l8.353,4.05 c2.333,1.131,4.773,1.213,6.939,0.153c-1.709,1.175-3.718,1.857-5.883,1.887C23.696,39.458,20.895,38.564,18.721,36.916z"/>
  <path fill="#fff" d="M28.267,20.171l-9.45-5.437c-0.46-0.264-0.957-0.438-1.468-0.547c-2.336-0.498-4.593,0.49-5.544,2.411 c-0.648,1.309-0.554,2.836,0.252,4.13c0.044,0.07,0.095,0.136,0.143,0.204c-0.018-0.08-0.031-0.162-0.042-0.243 c-0.143-1.938,0.631-3.886,2.241-5.123c0.447-0.344,0.953-0.612,1.484-0.806c2.048-0.75,4.482-0.287,6.116,1.219 c0.414,0.38,0.773,0.823,1.06,1.317l4.531,7.851c0.735,1.273,0.868,2.717,0.472,4.014c-0.01,0.033-0.025,0.066-0.036,0.1 c0.024-0.015,0.051-0.025,0.075-0.041c1.439-0.942,2.44-2.432,2.63-4.167C30.882,23.071,29.945,21.16,28.267,20.171z"/>
</svg>
