<?xml version="1.0" encoding="UTF-8"?>
<svg xmlns="http://www.w3.org/2000/svg" viewBox="0 0 48 48" width="48px" height="48px">
  <linearGradient id="Xvs~EgvUQWs3zVrMvl7Nha" x1="24" x2="24" y1="10.043" y2="38.196" gradientUnits="userSpaceOnUse">
    <stop offset="0" stop-color="#f09"/>
    <stop offset=".99" stop-color="#ff6d00"/>
  </linearGradient>
  <path fill="url(#Xvs~EgvUQWs3zVrMvl7Nha)" d="M39.5,15c0,0-8.4-7.2-18.6-0.9C15.1,17.6,15,24,15,24s-0.7-1.5-2.6-1.5c-1.8,0-3.4,1.5-3.4,4.4 c0,3.1,1.7,4.9,3.4,5.4c0,0-1.1,3.9-7.4,3.9c0,0,8.1,7.7,19.6,0.4c4.4-2.8,6-7.5,6-7.5s0.7,1.1,2.1,1.1c2,0,3.3-1.5,3.3-4.3 c0-2.9-1.4-4.9-3.3-5.3c0,0,0.9-3.4,7.4-3.4L39.5,15z"/>
</svg>
