<?xml version="1.0" encoding="UTF-8"?>
<svg xmlns="http://www.w3.org/2000/svg" viewBox="0 0 48 48" width="48px" height="48px">
  <path fill="#252f3e" d="M13.527,21.529c0,0.597,0.064,1.08,0.176,1.435c0.128,0.355,0.287,0.742,0.511,1.161 c0.08,0.129,0.112,0.258,0.112,0.371c0,0.161-0.096,0.322-0.303,0.484l-1.006,0.677c-0.144,0.097-0.287,0.145-0.415,0.145 c-0.16,0-0.319-0.081-0.479-0.226c-0.224-0.242-0.415-0.5-0.575-0.774c-0.16-0.29-0.319-0.613-0.495-0.999 c-1.245,1.483-2.81,2.225-4.695,2.225c-1.341,0-2.411-0.387-3.193-1.161c-0.782-0.774-1.181-1.806-1.181-3.096 c0-1.37,0.479-2.483,1.453-3.321c0.974-0.838,2.267-1.257,3.911-1.257c0.542,0,1.101,0.048,1.692,0.129 c0.591,0.081,1.198,0.21,1.836,0.355v-1.177c0-1.225-0.255-2.08-0.75-2.58c-0.511-0.5-1.373-0.742-2.602-0.742 c-0.559,0-1.133,0.064-1.724,0.21c-0.591,0.145-1.165,0.322-1.724,0.548c-0.255,0.113-0.447,0.177-0.559,0.21 c-0.112,0.032-0.192,0.048-0.255,0.048c-0.224,0-0.335-0.161-0.335-0.5v-0.79c0-0.258,0.032-0.451,0.112-0.564 c0.08-0.113,0.224-0.226,0.447-0.339c0.559-0.29,1.229-0.532,2.012-0.726c0.782-0.194,1.612-0.291,2.49-0.291 c1.9,0,3.289,0.435,4.183,1.306c0.878,0.871,1.325,2.193,1.325,3.966v5.224H13.527z M7.045,23.979c0.527,0,1.07-0.097,1.644-0.29 c0.575-0.193,1.086-0.548,1.517-1.032c0.255-0.307,0.447-0.645,0.543-1.032c0.096-0.387,0.16-0.855,0.16-1.403v-0.677 c-0.463-0.113-0.958-0.21-1.469-0.275c-0.511-0.064-1.006-0.097-1.501-0.097c-1.07,0-1.852,0.21-2.379,0.645 c-0.527,0.436-0.782,1.048-0.782,1.854c0,0.758,0.192,1.322,0.591,1.709C5.752,23.786,6.311,23.979,7.045,23.979z M19.865,25.721 c-0.287,0-0.479-0.048-0.607-0.161c-0.128-0.097-0.239-0.322-0.335-0.629l-3.752-12.463c-0.096-0.322-0.144-0.532-0.144-0.645 c0-0.258,0.128-0.403,0.383-0.403h1.565c0.303,0,0.511,0.048,0.623,0.161c0.128,0.097,0.224,0.322,0.319,0.629l2.682,10.674 l2.49-10.674c0.08-0.322,0.176-0.532,0.303-0.629c0.128-0.097,0.351-0.161,0.639-0.161h1.277c0.303,0,0.511,0.048,0.639,0.161 c0.128,0.097,0.239,0.322,0.303,0.629l2.522,10.803l2.762-10.803c0.096-0.322,0.208-0.532,0.319-0.629 c0.128-0.097,0.335-0.161,0.623-0.161h1.485c0.255,0,0.399,0.129,0.399,0.403c0,0.081-0.016,0.161-0.032,0.258 c-0.016,0.097-0.048,0.226-0.112,0.387l-3.847,12.463c-0.096,0.322-0.208,0.532-0.335,0.629c-0.128,0.097-0.335,0.161-0.607,0.161 h-1.373c-0.303,0-0.511-0.048-0.639-0.161c-0.128-0.113-0.239-0.322-0.303-0.645l-2.474-10.4l-2.458,10.384 c-0.08,0.322-0.176,0.532-0.303,0.645c-0.128,0.113-0.351,0.161-0.639,0.161H19.865z M40.379,26.156 c-0.83,0-1.66-0.097-2.458-0.29c-0.798-0.193-1.421-0.403-1.836-0.629c-0.255-0.129-0.431-0.274-0.495-0.403 c-0.064-0.129-0.096-0.274-0.096-0.403v-0.822c0-0.339,0.128-0.5,0.367-0.5c0.096,0,0.192,0.016,0.287,0.048 c0.096,0.032,0.239,0.097,0.399,0.161c0.543,0.242,1.133,0.435,1.772,0.564c0.655,0.129,1.293,0.193,1.948,0.193 c1.038,0,1.836-0.177,2.379-0.532c0.543-0.355,0.83-0.871,0.83-1.532c0-0.451-0.144-0.822-0.431-1.129 c-0.287-0.307-0.83-0.58-1.612-0.838l-2.315-0.726c-1.165-0.371-2.027-0.92-2.57-1.645c-0.543-0.709-0.83-1.499-0.83-2.354 c0-0.677,0.144-1.274,0.431-1.79c0.287-0.516,0.671-0.967,1.149-1.338c0.479-0.387,1.022-0.677,1.66-0.871 c0.639-0.193,1.293-0.29,1.996-0.29c0.351,0,0.718,0.016,1.07,0.064c0.367,0.048,0.702,0.113,1.038,0.177 c0.319,0.081,0.623,0.161,0.91,0.258c0.287,0.097,0.511,0.193,0.671,0.29c0.224,0.129,0.383,0.258,0.479,0.403 c0.096,0.129,0.144,0.29,0.144,0.5v0.758c0,0.339-0.128,0.516-0.367,0.516c-0.128,0-0.335-0.064-0.607-0.193 c-0.91-0.419-1.932-0.629-3.065-0.629c-0.942,0-1.676,0.145-2.187,0.451c-0.511,0.307-0.774,0.774-0.774,1.435 c0,0.451,0.16,0.838,0.479,1.145c0.319,0.307,0.91,0.613,1.756,0.887l2.267,0.726c1.149,0.371,1.98,0.887,2.474,1.548 c0.495,0.661,0.75,1.419,0.75,2.257c0,0.693-0.144,1.322-0.415,1.87c-0.287,0.548-0.671,1.032-1.165,1.419 c-0.495,0.403-1.086,0.709-1.772,0.919C41.8,26.043,41.098,26.156,40.379,26.156z"/>
  <path fill="#f90" d="M43.396,33.992c-5.252,3.918-12.883,5.998-19.445,5.998c-9.195,0-17.481-3.434-23.739-9.142 c-0.495-0.451-0.048-1.064,0.543-0.709c6.769,3.966,15.118,6.369,23.755,6.369c5.827,0,12.229-1.225,18.119-3.741 C43.508,32.364,44.258,33.347,43.396,33.992z M45.583,31.477c-0.671-0.871-4.438-0.419-6.146-0.21 c-0.511,0.064-0.591-0.387-0.128-0.726c3.001-2.128,7.934-1.516,8.509-0.806c0.575,0.726-0.16,5.708-2.969,8.094 c-0.431,0.371-0.846,0.177-0.655-0.307C44.833,35.927,46.254,32.331,45.583,31.477z"/>
</svg>
