<?xml version="1.0" encoding="UTF-8"?>
<svg xmlns="http://www.w3.org/2000/svg" viewBox="0 0 48 48" width="48px" height="48px">
  <path fill="#326de6" d="M24,4C12.954,4,4,12.954,4,24s8.954,20,20,20s20-8.954,20-20S35.046,4,24,4z"/>
  <path fill="#fff" d="M24,7c-0.386,0-0.738,0.211-0.914,0.55L16.038,22.472c-0.177,0.339-0.162,0.745,0.039,1.069 l7.045,11.307c0.177,0.284,0.486,0.455,0.818,0.455c0.003,0,0.006,0,0.009,0c0.007,0,0.013-0.003,0.019-0.003 c0.007,0,0.013,0.003,0.019,0.003c0.003,0,0.006,0,0.009,0c0.332,0,0.641-0.171,0.818-0.455l7.045-11.307 c0.201-0.324,0.216-0.73,0.039-1.069L24.914,7.55C24.738,7.211,24.386,7,24,7z"/>
  <path fill="#fff" d="M24,7c-0.386,0-0.738,0.211-0.914,0.55L16.038,22.472c-0.177,0.339-0.162,0.745,0.039,1.069 l7.045,11.307c0.177,0.284,0.486,0.455,0.818,0.455c0.003,0,0.006,0,0.009,0c0.007,0,0.013-0.003,0.019-0.003 c0.007,0,0.013,0.003,0.019,0.003c0.003,0,0.006,0,0.009,0c0.332,0,0.641-0.171,0.818-0.455l7.045-11.307 c0.201-0.324,0.216-0.73,0.039-1.069L24.914,7.55C24.738,7.211,24.386,7,24,7z"/>
  <path fill="#326de6" d="M24,10.333c-0.221,0-0.433,0.085-0.595,0.238l-5.584,5.273c-0.164,0.154-0.26,0.366-0.269,0.591 l-0.292,7.633c-0.009,0.225,0.075,0.443,0.232,0.606l5.369,5.569c0.162,0.168,0.383,0.262,0.615,0.262c0.009,0,0.018,0,0.027,0 c0.011,0,0.022-0.003,0.033-0.003c0.011,0,0.022,0.003,0.033,0.003c0.009,0,0.018,0,0.027,0c0.232,0,0.453-0.094,0.615-0.262 l5.369-5.569c0.157-0.163,0.241-0.381,0.232-0.606l-0.292-7.633c-0.009-0.225-0.105-0.437-0.269-0.591l-5.584-5.273 C24.433,10.418,24.221,10.333,24,10.333z"/>
  <path fill="#fff" d="M24,11.224c-0.104,0-0.205,0.04-0.281,0.112l-5.251,4.959c-0.077,0.073-0.122,0.173-0.127,0.279 l-0.275,7.179c-0.004,0.106,0.035,0.209,0.109,0.286l5.049,5.237c0.076,0.079,0.181,0.124,0.29,0.124c0.004,0,0.008,0,0.013,0 c0.005,0,0.01-0.001,0.016-0.001c0.005,0,0.01,0.001,0.016,0.001c0.004,0,0.008,0,0.013,0c0.109,0,0.213-0.045,0.29-0.124 l5.049-5.237c0.074-0.077,0.113-0.18,0.109-0.286l-0.275-7.179c-0.004-0.106-0.05-0.206-0.127-0.279l-5.251-4.959 C24.205,11.264,24.104,11.224,24,11.224z"/>
</svg>
